<?xml version="1.0" encoding="utf-8" standalone="no"?>
<!DOCTYPE svg PUBLIC "-//W3C//DTD SVG 1.1//EN"
  "http://www.w3.org/Graphics/SVG/1.1/DTD/svg11.dtd">
<svg xmlns:xlink="http://www.w3.org/1999/xlink" width="540pt" height="345.6pt" viewBox="0 0 540 345.6" xmlns="http://www.w3.org/2000/svg" version="1.1">
 <metadata>
  <rdf:RDF xmlns:dc="http://purl.org/dc/elements/1.1/" xmlns:cc="http://creativecommons.org/ns#" xmlns:rdf="http://www.w3.org/1999/02/22-rdf-syntax-ns#">
   <cc:Work>
    <dc:type rdf:resource="http://purl.org/dc/dcmitype/StillImage"/>
    <dc:date>2026-10-07T16:31:09.972098</dc:date>
    <dc:format>image/svg+xml</dc:format>
    <dc:creator>
     <cc:Agent>
      <dc:title>Matplotlib v3.10.0, https://matplotlib.org/</dc:title>
     </cc:Agent>
    </dc:creator>
   </cc:Work>
  </rdf:RDF>
 </metadata>
 <defs>
  <style type="text/css">*{stroke-linejoin: round; stroke-linecap: butt}</style>
 </defs>
 <g id="figure_1">
  <g id="patch_1">
   <path d="M 0 345.6 
L 540 345.6 
L 540 0 
L 0 0 
z
" style="fill: #ffffff"/>
  </g>
  <g id="axes_1">
   <g id="patch_2">
    <path d="M 54.02 292.232 
L 522.482727 292.232 
L 522.482727 26.88 
L 54.02 26.88 
z
" style="fill: #ffffff"/>
   </g>
   <g id="matplotlib.axis_1">
    <g id="xtick_1">
     <g id="line2d_1">
      <defs>
       <path id="m96b2f997db" d="M 0 0 
L 0 3.5 
" style="stroke: #000000; stroke-width: 0.8"/>
      </defs>
      <g>
       <use xlink:href="#m96b2f997db" x="75.31376" y="292.232" style="stroke: #000000; stroke-width: 0.8"/>
      </g>
     </g>
     <g id="text_1">
      <!-- w192_p04 -->
      <g transform="translate(49.644229 306.653875) scale(0.1 -0.1)">
       <defs>
        <path id="DejaVuSans-77" d="M 269 3500 
L 844 3500 
L 1563 769 
L 2278 3500 
L 2956 3500 
L 3675 769 
L 4391 3500 
L 4966 3500 
L 4050 0 
L 3372 0 
L 2619 2869 
L 1863 0 
L 1184 0 
L 269 3500 
z
" transform="scale(0.015625)"/>
        <path id="DejaVuSans-31" d="M 794 531 
L 1825 531 
L 1825 4091 
L 703 3866 
L 703 4441 
L 1819 4666 
L 2450 4666 
L 2450 531 
L 3481 531 
L 3481 0 
L 794 0 
L 794 531 
z
" transform="scale(0.015625)"/>
        <path id="DejaVuSans-39" d="M 703 97 
L 703 672 
Q 941 559 1184 500 
Q 1428 441 1663 441 
Q 2288 441 2617 861 
Q 2947 1281 2994 2138 
Q 2813 1869 2534 1725 
Q 2256 1581 1919 1581 
Q 1219 1581 811 2004 
Q 403 2428 403 3163 
Q 403 3881 828 4315 
Q 1253 4750 1959 4750 
Q 2769 4750 3195 4129 
Q 3622 3509 3622 2328 
Q 3622 1225 3098 567 
Q 2575 -91 1691 -91 
Q 1453 -91 1209 -44 
Q 966 3 703 97 
z
M 1959 2075 
Q 2384 2075 2632 2365 
Q 2881 2656 2881 3163 
Q 2881 3666 2632 3958 
Q 2384 4250 1959 4250 
Q 1534 4250 1286 3958 
Q 1038 3666 1038 3163 
Q 1038 2656 1286 2365 
Q 1534 2075 1959 2075 
z
" transform="scale(0.015625)"/>
        <path id="DejaVuSans-32" d="M 1228 531 
L 3431 531 
L 3431 0 
L 469 0 
L 469 531 
Q 828 903 1448 1529 
Q 2069 2156 2228 2338 
Q 2531 2678 2651 2914 
Q 2772 3150 2772 3378 
Q 2772 3750 2511 3984 
Q 2250 4219 1831 4219 
Q 1534 4219 1204 4116 
Q 875 4013 500 3803 
L 500 4441 
Q 881 4594 1212 4672 
Q 1544 4750 1819 4750 
Q 2544 4750 2975 4387 
Q 3406 4025 3406 3419 
Q 3406 3131 3298 2873 
Q 3191 2616 2906 2266 
Q 2828 2175 2409 1742 
Q 1991 1309 1228 531 
z
" transform="scale(0.015625)"/>
        <path id="DejaVuSans-5f" d="M 3263 -1063 
L 3263 -1509 
L -63 -1509 
L -63 -1063 
L 3263 -1063 
z
" transform="scale(0.015625)"/>
        <path id="DejaVuSans-70" d="M 1159 525 
L 1159 -1331 
L 581 -1331 
L 581 3500 
L 1159 3500 
L 1159 2969 
Q 1341 3281 1617 3432 
Q 1894 3584 2278 3584 
Q 2916 3584 3314 3078 
Q 3713 2572 3713 1747 
Q 3713 922 3314 415 
Q 2916 -91 2278 -91 
Q 1894 -91 1617 61 
Q 1341 213 1159 525 
z
M 3116 1747 
Q 3116 2381 2855 2742 
Q 2594 3103 2138 3103 
Q 1681 3103 1420 2742 
Q 1159 2381 1159 1747 
Q 1159 1113 1420 752 
Q 1681 391 2138 391 
Q 2594 391 2855 752 
Q 3116 1113 3116 1747 
z
" transform="scale(0.015625)"/>
        <path id="DejaVuSans-30" d="M 2034 4250 
Q 1547 4250 1301 3770 
Q 1056 3291 1056 2328 
Q 1056 1369 1301 889 
Q 1547 409 2034 409 
Q 2525 409 2770 889 
Q 3016 1369 3016 2328 
Q 3016 3291 2770 3770 
Q 2525 4250 2034 4250 
z
M 2034 4750 
Q 2819 4750 3233 4129 
Q 3647 3509 3647 2328 
Q 3647 1150 3233 529 
Q 2819 -91 2034 -91 
Q 1250 -91 836 529 
Q 422 1150 422 2328 
Q 422 3509 836 4129 
Q 1250 4750 2034 4750 
z
" transform="scale(0.015625)"/>
        <path id="DejaVuSans-34" d="M 2419 4116 
L 825 1625 
L 2419 1625 
L 2419 4116 
z
M 2253 4666 
L 3047 4666 
L 3047 1625 
L 3713 1625 
L 3713 1100 
L 3047 1100 
L 3047 0 
L 2419 0 
L 2419 1100 
L 313 1100 
L 313 1709 
L 2253 4666 
z
" transform="scale(0.015625)"/>
       </defs>
       <use xlink:href="#DejaVuSans-77"/>
       <use xlink:href="#DejaVuSans-31" transform="translate(81.787109 0)"/>
       <use xlink:href="#DejaVuSans-39" transform="translate(145.410156 0)"/>
       <use xlink:href="#DejaVuSans-32" transform="translate(209.033203 0)"/>
       <use xlink:href="#DejaVuSans-5f" transform="translate(272.65625 0)"/>
       <use xlink:href="#DejaVuSans-70" transform="translate(322.65625 0)"/>
       <use xlink:href="#DejaVuSans-30" transform="translate(386.132812 0)"/>
       <use xlink:href="#DejaVuSans-34" transform="translate(449.755859 0)"/>
      </g>
      <!-- 65 tokens -->
      <g transform="translate(50.778604 318.129812) scale(0.1 -0.1)">
       <defs>
        <path id="DejaVuSans-36" d="M 2113 2584 
Q 1688 2584 1439 2293 
Q 1191 2003 1191 1497 
Q 1191 994 1439 701 
Q 1688 409 2113 409 
Q 2538 409 2786 701 
Q 3034 994 3034 1497 
Q 3034 2003 2786 2293 
Q 2538 2584 2113 2584 
z
M 3366 4563 
L 3366 3988 
Q 3128 4100 2886 4159 
Q 2644 4219 2406 4219 
Q 1781 4219 1451 3797 
Q 1122 3375 1075 2522 
Q 1259 2794 1537 2939 
Q 1816 3084 2150 3084 
Q 2853 3084 3261 2657 
Q 3669 2231 3669 1497 
Q 3669 778 3244 343 
Q 2819 -91 2113 -91 
Q 1303 -91 875 529 
Q 447 1150 447 2328 
Q 447 3434 972 4092 
Q 1497 4750 2381 4750 
Q 2619 4750 2861 4703 
Q 3103 4656 3366 4563 
z
" transform="scale(0.015625)"/>
        <path id="DejaVuSans-35" d="M 691 4666 
L 3169 4666 
L 3169 4134 
L 1269 4134 
L 1269 2991 
Q 1406 3038 1543 3061 
Q 1681 3084 1819 3084 
Q 2600 3084 3056 2656 
Q 3513 2228 3513 1497 
Q 3513 744 3044 326 
Q 2575 -91 1722 -91 
Q 1428 -91 1123 -41 
Q 819 9 494 109 
L 494 744 
Q 775 591 1075 516 
Q 1375 441 1709 441 
Q 2250 441 2565 725 
Q 2881 1009 2881 1497 
Q 2881 1984 2565 2268 
Q 2250 2553 1709 2553 
Q 1456 2553 1204 2497 
Q 953 2441 691 2322 
L 691 4666 
z
" transform="scale(0.015625)"/>
        <path id="DejaVuSans-20" transform="scale(0.015625)"/>
        <path id="DejaVuSans-74" d="M 1172 4494 
L 1172 3500 
L 2356 3500 
L 2356 3053 
L 1172 3053 
L 1172 1153 
Q 1172 725 1289 603 
Q 1406 481 1766 481 
L 2356 481 
L 2356 0 
L 1766 0 
Q 1100 0 847 248 
Q 594 497 594 1153 
L 594 3053 
L 172 3053 
L 172 3500 
L 594 3500 
L 594 4494 
L 1172 4494 
z
" transform="scale(0.015625)"/>
        <path id="DejaVuSans-6f" d="M 1959 3097 
Q 1497 3097 1228 2736 
Q 959 2375 959 1747 
Q 959 1119 1226 758 
Q 1494 397 1959 397 
Q 2419 397 2687 759 
Q 2956 1122 2956 1747 
Q 2956 2369 2687 2733 
Q 2419 3097 1959 3097 
z
M 1959 3584 
Q 2709 3584 3137 3096 
Q 3566 2609 3566 1747 
Q 3566 888 3137 398 
Q 2709 -91 1959 -91 
Q 1206 -91 779 398 
Q 353 888 353 1747 
Q 353 2609 779 3096 
Q 1206 3584 1959 3584 
z
" transform="scale(0.015625)"/>
        <path id="DejaVuSans-6b" d="M 581 4863 
L 1159 4863 
L 1159 1991 
L 2875 3500 
L 3609 3500 
L 1753 1863 
L 3688 0 
L 2938 0 
L 1159 1709 
L 1159 0 
L 581 0 
L 581 4863 
z
" transform="scale(0.015625)"/>
        <path id="DejaVuSans-65" d="M 3597 1894 
L 3597 1613 
L 953 1613 
Q 991 1019 1311 708 
Q 1631 397 2203 397 
Q 2534 397 2845 478 
Q 3156 559 3463 722 
L 3463 178 
Q 3153 47 2828 -22 
Q 2503 -91 2169 -91 
Q 1331 -91 842 396 
Q 353 884 353 1716 
Q 353 2575 817 3079 
Q 1281 3584 2069 3584 
Q 2775 3584 3186 3129 
Q 3597 2675 3597 1894 
z
M 3022 2063 
Q 3016 2534 2758 2815 
Q 2500 3097 2075 3097 
Q 1594 3097 1305 2825 
Q 1016 2553 972 2059 
L 3022 2063 
z
" transform="scale(0.015625)"/>
        <path id="DejaVuSans-6e" d="M 3513 2113 
L 3513 0 
L 2938 0 
L 2938 2094 
Q 2938 2591 2744 2837 
Q 2550 3084 2163 3084 
Q 1697 3084 1428 2787 
Q 1159 2491 1159 1978 
L 1159 0 
L 581 0 
L 581 3500 
L 1159 3500 
L 1159 2956 
Q 1366 3272 1645 3428 
Q 1925 3584 2291 3584 
Q 2894 3584 3203 3211 
Q 3513 2838 3513 2113 
z
" transform="scale(0.015625)"/>
        <path id="DejaVuSans-73" d="M 2834 3397 
L 2834 2853 
Q 2591 2978 2328 3040 
Q 2066 3103 1784 3103 
Q 1356 3103 1142 2972 
Q 928 2841 928 2578 
Q 928 2378 1081 2264 
Q 1234 2150 1697 2047 
L 1894 2003 
Q 2506 1872 2764 1633 
Q 3022 1394 3022 966 
Q 3022 478 2636 193 
Q 2250 -91 1575 -91 
Q 1294 -91 989 -36 
Q 684 19 347 128 
L 347 722 
Q 666 556 975 473 
Q 1284 391 1588 391 
Q 1994 391 2212 530 
Q 2431 669 2431 922 
Q 2431 1156 2273 1281 
Q 2116 1406 1581 1522 
L 1381 1569 
Q 847 1681 609 1914 
Q 372 2147 372 2553 
Q 372 3047 722 3315 
Q 1072 3584 1716 3584 
Q 2034 3584 2315 3537 
Q 2597 3491 2834 3397 
z
" transform="scale(0.015625)"/>
       </defs>
       <use xlink:href="#DejaVuSans-36"/>
       <use xlink:href="#DejaVuSans-35" transform="translate(63.623047 0)"/>
       <use xlink:href="#DejaVuSans-20" transform="translate(127.246094 0)"/>
       <use xlink:href="#DejaVuSans-74" transform="translate(159.033203 0)"/>
       <use xlink:href="#DejaVuSans-6f" transform="translate(198.242188 0)"/>
       <use xlink:href="#DejaVuSans-6b" transform="translate(259.423828 0)"/>
       <use xlink:href="#DejaVuSans-65" transform="translate(313.708984 0)"/>
       <use xlink:href="#DejaVuSans-6e" transform="translate(375.232422 0)"/>
       <use xlink:href="#DejaVuSans-73" transform="translate(438.611328 0)"/>
      </g>
     </g>
    </g>
    <g id="xtick_2">
     <g id="line2d_2">
      <g>
       <use xlink:href="#m96b2f997db" x="288.251364" y="292.232" style="stroke: #000000; stroke-width: 0.8"/>
      </g>
     </g>
     <g id="text_2">
      <!-- w192_p08 -->
      <g transform="translate(262.581832 306.653875) scale(0.1 -0.1)">
       <defs>
        <path id="DejaVuSans-38" d="M 2034 2216 
Q 1584 2216 1326 1975 
Q 1069 1734 1069 1313 
Q 1069 891 1326 650 
Q 1584 409 2034 409 
Q 2484 409 2743 651 
Q 3003 894 3003 1313 
Q 3003 1734 2745 1975 
Q 2488 2216 2034 2216 
z
M 1403 2484 
Q 997 2584 770 2862 
Q 544 3141 544 3541 
Q 544 4100 942 4425 
Q 1341 4750 2034 4750 
Q 2731 4750 3128 4425 
Q 3525 4100 3525 3541 
Q 3525 3141 3298 2862 
Q 3072 2584 2669 2484 
Q 3125 2378 3379 2068 
Q 3634 1759 3634 1313 
Q 3634 634 3220 271 
Q 2806 -91 2034 -91 
Q 1263 -91 848 271 
Q 434 634 434 1313 
Q 434 1759 690 2068 
Q 947 2378 1403 2484 
z
M 1172 3481 
Q 1172 3119 1398 2916 
Q 1625 2713 2034 2713 
Q 2441 2713 2670 2916 
Q 2900 3119 2900 3481 
Q 2900 3844 2670 4047 
Q 2441 4250 2034 4250 
Q 1625 4250 1398 4047 
Q 1172 3844 1172 3481 
z
" transform="scale(0.015625)"/>
       </defs>
       <use xlink:href="#DejaVuSans-77"/>
       <use xlink:href="#DejaVuSans-31" transform="translate(81.787109 0)"/>
       <use xlink:href="#DejaVuSans-39" transform="translate(145.410156 0)"/>
       <use xlink:href="#DejaVuSans-32" transform="translate(209.033203 0)"/>
       <use xlink:href="#DejaVuSans-5f" transform="translate(272.65625 0)"/>
       <use xlink:href="#DejaVuSans-70" transform="translate(322.65625 0)"/>
       <use xlink:href="#DejaVuSans-30" transform="translate(386.132812 0)"/>
       <use xlink:href="#DejaVuSans-38" transform="translate(449.755859 0)"/>
      </g>
      <!-- 17 tokens -->
      <g transform="translate(263.716207 318.129812) scale(0.1 -0.1)">
       <defs>
        <path id="DejaVuSans-37" d="M 525 4666 
L 3525 4666 
L 3525 4397 
L 1831 0 
L 1172 0 
L 2766 4134 
L 525 4134 
L 525 4666 
z
" transform="scale(0.015625)"/>
       </defs>
       <use xlink:href="#DejaVuSans-31"/>
       <use xlink:href="#DejaVuSans-37" transform="translate(63.623047 0)"/>
       <use xlink:href="#DejaVuSans-20" transform="translate(127.246094 0)"/>
       <use xlink:href="#DejaVuSans-74" transform="translate(159.033203 0)"/>
       <use xlink:href="#DejaVuSans-6f" transform="translate(198.242188 0)"/>
       <use xlink:href="#DejaVuSans-6b" transform="translate(259.423828 0)"/>
       <use xlink:href="#DejaVuSans-65" transform="translate(313.708984 0)"/>
       <use xlink:href="#DejaVuSans-6e" transform="translate(375.232422 0)"/>
       <use xlink:href="#DejaVuSans-73" transform="translate(438.611328 0)"/>
      </g>
     </g>
    </g>
    <g id="xtick_3">
     <g id="line2d_3">
      <g>
       <use xlink:href="#m96b2f997db" x="501.188967" y="292.232" style="stroke: #000000; stroke-width: 0.8"/>
      </g>
     </g>
     <g id="text_3">
      <!-- w192_p16 -->
      <g transform="translate(475.519436 306.653875) scale(0.1 -0.1)">
       <use xlink:href="#DejaVuSans-77"/>
       <use xlink:href="#DejaVuSans-31" transform="translate(81.787109 0)"/>
       <use xlink:href="#DejaVuSans-39" transform="translate(145.410156 0)"/>
       <use xlink:href="#DejaVuSans-32" transform="translate(209.033203 0)"/>
       <use xlink:href="#DejaVuSans-5f" transform="translate(272.65625 0)"/>
       <use xlink:href="#DejaVuSans-70" transform="translate(322.65625 0)"/>
       <use xlink:href="#DejaVuSans-31" transform="translate(386.132812 0)"/>
       <use xlink:href="#DejaVuSans-36" transform="translate(449.755859 0)"/>
      </g>
      <!-- 5 tokens -->
      <g transform="translate(479.835061 318.129812) scale(0.1 -0.1)">
       <use xlink:href="#DejaVuSans-35"/>
       <use xlink:href="#DejaVuSans-20" transform="translate(63.623047 0)"/>
       <use xlink:href="#DejaVuSans-74" transform="translate(95.410156 0)"/>
       <use xlink:href="#DejaVuSans-6f" transform="translate(134.619141 0)"/>
       <use xlink:href="#DejaVuSans-6b" transform="translate(195.800781 0)"/>
       <use xlink:href="#DejaVuSans-65" transform="translate(250.085938 0)"/>
       <use xlink:href="#DejaVuSans-6e" transform="translate(311.609375 0)"/>
       <use xlink:href="#DejaVuSans-73" transform="translate(374.988281 0)"/>
      </g>
     </g>
    </g>
   </g>
   <g id="matplotlib.axis_2">
    <g id="ytick_1">
     <g id="line2d_4">
      <path d="M 54.02 288.375306 
L 522.482727 288.375306 
" clip-path="url(#pc3923dcbc2)" style="fill: none; stroke: #b0b0b0; stroke-opacity: 0.3; stroke-width: 0.8; stroke-linecap: square"/>
     </g>
     <g id="line2d_5">
      <defs>
       <path id="ma923584446" d="M 0 0 
L -3.5 0 
" style="stroke: #000000; stroke-width: 0.8"/>
      </defs>
      <g>
       <use xlink:href="#ma923584446" x="54.02" y="288.375306" style="stroke: #000000; stroke-width: 0.8"/>
      </g>
     </g>
     <g id="text_4">
      <!-- 57.5 -->
      <g transform="translate(24.754375 292.174524) scale(0.1 -0.1)">
       <defs>
        <path id="DejaVuSans-2e" d="M 684 794 
L 1344 794 
L 1344 0 
L 684 0 
L 684 794 
z
" transform="scale(0.015625)"/>
       </defs>
       <use xlink:href="#DejaVuSans-35"/>
       <use xlink:href="#DejaVuSans-37" transform="translate(63.623047 0)"/>
       <use xlink:href="#DejaVuSans-2e" transform="translate(127.246094 0)"/>
       <use xlink:href="#DejaVuSans-35" transform="translate(159.033203 0)"/>
      </g>
     </g>
    </g>
    <g id="ytick_2">
     <g id="line2d_6">
      <path d="M 54.02 254.668028 
L 522.482727 254.668028 
" clip-path="url(#pc3923dcbc2)" style="fill: none; stroke: #b0b0b0; stroke-opacity: 0.3; stroke-width: 0.8; stroke-linecap: square"/>
     </g>
     <g id="line2d_7">
      <g>
       <use xlink:href="#ma923584446" x="54.02" y="254.668028" style="stroke: #000000; stroke-width: 0.8"/>
      </g>
     </g>
     <g id="text_5">
      <!-- 60.0 -->
      <g transform="translate(24.754375 258.467247) scale(0.1 -0.1)">
       <use xlink:href="#DejaVuSans-36"/>
       <use xlink:href="#DejaVuSans-30" transform="translate(63.623047 0)"/>
       <use xlink:href="#DejaVuSans-2e" transform="translate(127.246094 0)"/>
       <use xlink:href="#DejaVuSans-30" transform="translate(159.033203 0)"/>
      </g>
     </g>
    </g>
    <g id="ytick_3">
     <g id="line2d_8">
      <path d="M 54.02 220.960751 
L 522.482727 220.960751 
" clip-path="url(#pc3923dcbc2)" style="fill: none; stroke: #b0b0b0; stroke-opacity: 0.3; stroke-width: 0.8; stroke-linecap: square"/>
     </g>
     <g id="line2d_9">
      <g>
       <use xlink:href="#ma923584446" x="54.02" y="220.960751" style="stroke: #000000; stroke-width: 0.8"/>
      </g>
     </g>
     <g id="text_6">
      <!-- 62.5 -->
      <g transform="translate(24.754375 224.75997) scale(0.1 -0.1)">
       <use xlink:href="#DejaVuSans-36"/>
       <use xlink:href="#DejaVuSans-32" transform="translate(63.623047 0)"/>
       <use xlink:href="#DejaVuSans-2e" transform="translate(127.246094 0)"/>
       <use xlink:href="#DejaVuSans-35" transform="translate(159.033203 0)"/>
      </g>
     </g>
    </g>
    <g id="ytick_4">
     <g id="line2d_10">
      <path d="M 54.02 187.253474 
L 522.482727 187.253474 
" clip-path="url(#pc3923dcbc2)" style="fill: none; stroke: #b0b0b0; stroke-opacity: 0.3; stroke-width: 0.8; stroke-linecap: square"/>
     </g>
     <g id="line2d_11">
      <g>
       <use xlink:href="#ma923584446" x="54.02" y="187.253474" style="stroke: #000000; stroke-width: 0.8"/>
      </g>
     </g>
     <g id="text_7">
      <!-- 65.0 -->
      <g transform="translate(24.754375 191.052693) scale(0.1 -0.1)">
       <use xlink:href="#DejaVuSans-36"/>
       <use xlink:href="#DejaVuSans-35" transform="translate(63.623047 0)"/>
       <use xlink:href="#DejaVuSans-2e" transform="translate(127.246094 0)"/>
       <use xlink:href="#DejaVuSans-30" transform="translate(159.033203 0)"/>
      </g>
     </g>
    </g>
    <g id="ytick_5">
     <g id="line2d_12">
      <path d="M 54.02 153.546197 
L 522.482727 153.546197 
" clip-path="url(#pc3923dcbc2)" style="fill: none; stroke: #b0b0b0; stroke-opacity: 0.3; stroke-width: 0.8; stroke-linecap: square"/>
     </g>
     <g id="line2d_13">
      <g>
       <use xlink:href="#ma923584446" x="54.02" y="153.546197" style="stroke: #000000; stroke-width: 0.8"/>
      </g>
     </g>
     <g id="text_8">
      <!-- 67.5 -->
      <g transform="translate(24.754375 157.345416) scale(0.1 -0.1)">
       <use xlink:href="#DejaVuSans-36"/>
       <use xlink:href="#DejaVuSans-37" transform="translate(63.623047 0)"/>
       <use xlink:href="#DejaVuSans-2e" transform="translate(127.246094 0)"/>
       <use xlink:href="#DejaVuSans-35" transform="translate(159.033203 0)"/>
      </g>
     </g>
    </g>
    <g id="ytick_6">
     <g id="line2d_14">
      <path d="M 54.02 119.83892 
L 522.482727 119.83892 
" clip-path="url(#pc3923dcbc2)" style="fill: none; stroke: #b0b0b0; stroke-opacity: 0.3; stroke-width: 0.8; stroke-linecap: square"/>
     </g>
     <g id="line2d_15">
      <g>
       <use xlink:href="#ma923584446" x="54.02" y="119.83892" style="stroke: #000000; stroke-width: 0.8"/>
      </g>
     </g>
     <g id="text_9">
      <!-- 70.0 -->
      <g transform="translate(24.754375 123.638138) scale(0.1 -0.1)">
       <use xlink:href="#DejaVuSans-37"/>
       <use xlink:href="#DejaVuSans-30" transform="translate(63.623047 0)"/>
       <use xlink:href="#DejaVuSans-2e" transform="translate(127.246094 0)"/>
       <use xlink:href="#DejaVuSans-30" transform="translate(159.033203 0)"/>
      </g>
     </g>
    </g>
    <g id="ytick_7">
     <g id="line2d_16">
      <path d="M 54.02 86.131643 
L 522.482727 86.131643 
" clip-path="url(#pc3923dcbc2)" style="fill: none; stroke: #b0b0b0; stroke-opacity: 0.3; stroke-width: 0.8; stroke-linecap: square"/>
     </g>
     <g id="line2d_17">
      <g>
       <use xlink:href="#ma923584446" x="54.02" y="86.131643" style="stroke: #000000; stroke-width: 0.8"/>
      </g>
     </g>
     <g id="text_10">
      <!-- 72.5 -->
      <g transform="translate(24.754375 89.930861) scale(0.1 -0.1)">
       <use xlink:href="#DejaVuSans-37"/>
       <use xlink:href="#DejaVuSans-32" transform="translate(63.623047 0)"/>
       <use xlink:href="#DejaVuSans-2e" transform="translate(127.246094 0)"/>
       <use xlink:href="#DejaVuSans-35" transform="translate(159.033203 0)"/>
      </g>
     </g>
    </g>
    <g id="ytick_8">
     <g id="line2d_18">
      <path d="M 54.02 52.424365 
L 522.482727 52.424365 
" clip-path="url(#pc3923dcbc2)" style="fill: none; stroke: #b0b0b0; stroke-opacity: 0.3; stroke-width: 0.8; stroke-linecap: square"/>
     </g>
     <g id="line2d_19">
      <g>
       <use xlink:href="#ma923584446" x="54.02" y="52.424365" style="stroke: #000000; stroke-width: 0.8"/>
      </g>
     </g>
     <g id="text_11">
      <!-- 75.0 -->
      <g transform="translate(24.754375 56.223584) scale(0.1 -0.1)">
       <use xlink:href="#DejaVuSans-37"/>
       <use xlink:href="#DejaVuSans-35" transform="translate(63.623047 0)"/>
       <use xlink:href="#DejaVuSans-2e" transform="translate(127.246094 0)"/>
       <use xlink:href="#DejaVuSans-30" transform="translate(159.033203 0)"/>
      </g>
     </g>
    </g>
    <g id="text_12">
     <!-- Best validation accuracy (%) -->
     <g transform="translate(18.674688 231.223969) rotate(-90) scale(0.1 -0.1)">
      <defs>
       <path id="DejaVuSans-42" d="M 1259 2228 
L 1259 519 
L 2272 519 
Q 2781 519 3026 730 
Q 3272 941 3272 1375 
Q 3272 1813 3026 2020 
Q 2781 2228 2272 2228 
L 1259 2228 
z
M 1259 4147 
L 1259 2741 
L 2194 2741 
Q 2656 2741 2882 2914 
Q 3109 3088 3109 3444 
Q 3109 3797 2882 3972 
Q 2656 4147 2194 4147 
L 1259 4147 
z
M 628 4666 
L 2241 4666 
Q 2963 4666 3353 4366 
Q 3744 4066 3744 3513 
Q 3744 3084 3544 2831 
Q 3344 2578 2956 2516 
Q 3422 2416 3680 2098 
Q 3938 1781 3938 1306 
Q 3938 681 3513 340 
Q 3088 0 2303 0 
L 628 0 
L 628 4666 
z
" transform="scale(0.015625)"/>
       <path id="DejaVuSans-76" d="M 191 3500 
L 800 3500 
L 1894 563 
L 2988 3500 
L 3597 3500 
L 2284 0 
L 1503 0 
L 191 3500 
z
" transform="scale(0.015625)"/>
       <path id="DejaVuSans-61" d="M 2194 1759 
Q 1497 1759 1228 1600 
Q 959 1441 959 1056 
Q 959 750 1161 570 
Q 1363 391 1709 391 
Q 2188 391 2477 730 
Q 2766 1069 2766 1631 
L 2766 1759 
L 2194 1759 
z
M 3341 1997 
L 3341 0 
L 2766 0 
L 2766 531 
Q 2569 213 2275 61 
Q 1981 -91 1556 -91 
Q 1019 -91 701 211 
Q 384 513 384 1019 
Q 384 1609 779 1909 
Q 1175 2209 1959 2209 
L 2766 2209 
L 2766 2266 
Q 2766 2663 2505 2880 
Q 2244 3097 1772 3097 
Q 1472 3097 1187 3025 
Q 903 2953 641 2809 
L 641 3341 
Q 956 3463 1253 3523 
Q 1550 3584 1831 3584 
Q 2591 3584 2966 3190 
Q 3341 2797 3341 1997 
z
" transform="scale(0.015625)"/>
       <path id="DejaVuSans-6c" d="M 603 4863 
L 1178 4863 
L 1178 0 
L 603 0 
L 603 4863 
z
" transform="scale(0.015625)"/>
       <path id="DejaVuSans-69" d="M 603 3500 
L 1178 3500 
L 1178 0 
L 603 0 
L 603 3500 
z
M 603 4863 
L 1178 4863 
L 1178 4134 
L 603 4134 
L 603 4863 
z
" transform="scale(0.015625)"/>
       <path id="DejaVuSans-64" d="M 2906 2969 
L 2906 4863 
L 3481 4863 
L 3481 0 
L 2906 0 
L 2906 525 
Q 2725 213 2448 61 
Q 2172 -91 1784 -91 
Q 1150 -91 751 415 
Q 353 922 353 1747 
Q 353 2572 751 3078 
Q 1150 3584 1784 3584 
Q 2172 3584 2448 3432 
Q 2725 3281 2906 2969 
z
M 947 1747 
Q 947 1113 1208 752 
Q 1469 391 1925 391 
Q 2381 391 2643 752 
Q 2906 1113 2906 1747 
Q 2906 2381 2643 2742 
Q 2381 3103 1925 3103 
Q 1469 3103 1208 2742 
Q 947 2381 947 1747 
z
" transform="scale(0.015625)"/>
       <path id="DejaVuSans-63" d="M 3122 3366 
L 3122 2828 
Q 2878 2963 2633 3030 
Q 2388 3097 2138 3097 
Q 1578 3097 1268 2742 
Q 959 2388 959 1747 
Q 959 1106 1268 751 
Q 1578 397 2138 397 
Q 2388 397 2633 464 
Q 2878 531 3122 666 
L 3122 134 
Q 2881 22 2623 -34 
Q 2366 -91 2075 -91 
Q 1284 -91 818 406 
Q 353 903 353 1747 
Q 353 2603 823 3093 
Q 1294 3584 2113 3584 
Q 2378 3584 2631 3529 
Q 2884 3475 3122 3366 
z
" transform="scale(0.015625)"/>
       <path id="DejaVuSans-75" d="M 544 1381 
L 544 3500 
L 1119 3500 
L 1119 1403 
Q 1119 906 1312 657 
Q 1506 409 1894 409 
Q 2359 409 2629 706 
Q 2900 1003 2900 1516 
L 2900 3500 
L 3475 3500 
L 3475 0 
L 2900 0 
L 2900 538 
Q 2691 219 2414 64 
Q 2138 -91 1772 -91 
Q 1169 -91 856 284 
Q 544 659 544 1381 
z
M 1991 3584 
L 1991 3584 
z
" transform="scale(0.015625)"/>
       <path id="DejaVuSans-72" d="M 2631 2963 
Q 2534 3019 2420 3045 
Q 2306 3072 2169 3072 
Q 1681 3072 1420 2755 
Q 1159 2438 1159 1844 
L 1159 0 
L 581 0 
L 581 3500 
L 1159 3500 
L 1159 2956 
Q 1341 3275 1631 3429 
Q 1922 3584 2338 3584 
Q 2397 3584 2469 3576 
Q 2541 3569 2628 3553 
L 2631 2963 
z
" transform="scale(0.015625)"/>
       <path id="DejaVuSans-79" d="M 2059 -325 
Q 1816 -950 1584 -1140 
Q 1353 -1331 966 -1331 
L 506 -1331 
L 506 -850 
L 844 -850 
Q 1081 -850 1212 -737 
Q 1344 -625 1503 -206 
L 1606 56 
L 191 3500 
L 800 3500 
L 1894 763 
L 2988 3500 
L 3597 3500 
L 2059 -325 
z
" transform="scale(0.015625)"/>
       <path id="DejaVuSans-28" d="M 1984 4856 
Q 1566 4138 1362 3434 
Q 1159 2731 1159 2009 
Q 1159 1288 1364 580 
Q 1569 -128 1984 -844 
L 1484 -844 
Q 1016 -109 783 600 
Q 550 1309 550 2009 
Q 550 2706 781 3412 
Q 1013 4119 1484 4856 
L 1984 4856 
z
" transform="scale(0.015625)"/>
       <path id="DejaVuSans-25" d="M 4653 2053 
Q 4381 2053 4226 1822 
Q 4072 1591 4072 1178 
Q 4072 772 4226 539 
Q 4381 306 4653 306 
Q 4919 306 5073 539 
Q 5228 772 5228 1178 
Q 5228 1588 5073 1820 
Q 4919 2053 4653 2053 
z
M 4653 2450 
Q 5147 2450 5437 2106 
Q 5728 1763 5728 1178 
Q 5728 594 5436 251 
Q 5144 -91 4653 -91 
Q 4153 -91 3862 251 
Q 3572 594 3572 1178 
Q 3572 1766 3864 2108 
Q 4156 2450 4653 2450 
z
M 1428 4353 
Q 1159 4353 1004 4120 
Q 850 3888 850 3481 
Q 850 3069 1003 2837 
Q 1156 2606 1428 2606 
Q 1700 2606 1854 2837 
Q 2009 3069 2009 3481 
Q 2009 3884 1853 4118 
Q 1697 4353 1428 4353 
z
M 4250 4750 
L 4750 4750 
L 1831 -91 
L 1331 -91 
L 4250 4750 
z
M 1428 4750 
Q 1922 4750 2215 4408 
Q 2509 4066 2509 3481 
Q 2509 2891 2217 2550 
Q 1925 2209 1428 2209 
Q 931 2209 642 2551 
Q 353 2894 353 3481 
Q 353 4063 643 4406 
Q 934 4750 1428 4750 
z
" transform="scale(0.015625)"/>
       <path id="DejaVuSans-29" d="M 513 4856 
L 1013 4856 
Q 1481 4119 1714 3412 
Q 1947 2706 1947 2009 
Q 1947 1309 1714 600 
Q 1481 -109 1013 -844 
L 513 -844 
Q 928 -128 1133 580 
Q 1338 1288 1338 2009 
Q 1338 2731 1133 3434 
Q 928 4138 513 4856 
z
" transform="scale(0.015625)"/>
      </defs>
      <use xlink:href="#DejaVuSans-42"/>
      <use xlink:href="#DejaVuSans-65" transform="translate(68.603516 0)"/>
      <use xlink:href="#DejaVuSans-73" transform="translate(130.126953 0)"/>
      <use xlink:href="#DejaVuSans-74" transform="translate(182.226562 0)"/>
      <use xlink:href="#DejaVuSans-20" transform="translate(221.435547 0)"/>
      <use xlink:href="#DejaVuSans-76" transform="translate(253.222656 0)"/>
      <use xlink:href="#DejaVuSans-61" transform="translate(312.402344 0)"/>
      <use xlink:href="#DejaVuSans-6c" transform="translate(373.681641 0)"/>
      <use xlink:href="#DejaVuSans-69" transform="translate(401.464844 0)"/>
      <use xlink:href="#DejaVuSans-64" transform="translate(429.248047 0)"/>
      <use xlink:href="#DejaVuSans-61" transform="translate(492.724609 0)"/>
      <use xlink:href="#DejaVuSans-74" transform="translate(554.003906 0)"/>
      <use xlink:href="#DejaVuSans-69" transform="translate(593.212891 0)"/>
      <use xlink:href="#DejaVuSans-6f" transform="translate(620.996094 0)"/>
      <use xlink:href="#DejaVuSans-6e" transform="translate(682.177734 0)"/>
      <use xlink:href="#DejaVuSans-20" transform="translate(745.556641 0)"/>
      <use xlink:href="#DejaVuSans-61" transform="translate(777.34375 0)"/>
      <use xlink:href="#DejaVuSans-63" transform="translate(838.623047 0)"/>
      <use xlink:href="#DejaVuSans-63" transform="translate(893.603516 0)"/>
      <use xlink:href="#DejaVuSans-75" transform="translate(948.583984 0)"/>
      <use xlink:href="#DejaVuSans-72" transform="translate(1011.962891 0)"/>
      <use xlink:href="#DejaVuSans-61" transform="translate(1053.076172 0)"/>
      <use xlink:href="#DejaVuSans-63" transform="translate(1114.355469 0)"/>
      <use xlink:href="#DejaVuSans-79" transform="translate(1169.335938 0)"/>
      <use xlink:href="#DejaVuSans-20" transform="translate(1228.515625 0)"/>
      <use xlink:href="#DejaVuSans-28" transform="translate(1260.302734 0)"/>
      <use xlink:href="#DejaVuSans-25" transform="translate(1299.316406 0)"/>
      <use xlink:href="#DejaVuSans-29" transform="translate(1394.335938 0)"/>
     </g>
    </g>
   </g>
   <g id="LineCollection_1">
    <path d="M 75.31376 57.543237 
L 75.31376 40.114608 
" clip-path="url(#pc3923dcbc2)" style="fill: none; stroke: #dd6b20; stroke-width: 2"/>
    <path d="M 288.251364 144.189051 
L 288.251364 129.825268 
" clip-path="url(#pc3923dcbc2)" style="fill: none; stroke: #dd6b20; stroke-width: 2"/>
    <path d="M 501.188967 280.170545 
L 501.188967 248.041586 
" clip-path="url(#pc3923dcbc2)" style="fill: none; stroke: #dd6b20; stroke-width: 2"/>
   </g>
   <g id="line2d_20">
    <defs>
     <path id="m65b7946848" d="M 6 0 
L -6 -0 
" style="stroke: #dd6b20"/>
    </defs>
    <g clip-path="url(#pc3923dcbc2)">
     <use xlink:href="#m65b7946848" x="75.31376" y="57.543237" style="fill: #dd6b20; stroke: #dd6b20"/>
     <use xlink:href="#m65b7946848" x="288.251364" y="144.189051" style="fill: #dd6b20; stroke: #dd6b20"/>
     <use xlink:href="#m65b7946848" x="501.188967" y="280.170545" style="fill: #dd6b20; stroke: #dd6b20"/>
    </g>
   </g>
   <g id="line2d_21">
    <g clip-path="url(#pc3923dcbc2)">
     <use xlink:href="#m65b7946848" x="75.31376" y="40.114608" style="fill: #dd6b20; stroke: #dd6b20"/>
     <use xlink:href="#m65b7946848" x="288.251364" y="129.825268" style="fill: #dd6b20; stroke: #dd6b20"/>
     <use xlink:href="#m65b7946848" x="501.188967" y="248.041586" style="fill: #dd6b20; stroke: #dd6b20"/>
    </g>
   </g>
   <g id="line2d_22">
    <path d="M 75.31376 48.828923 
L 288.251364 137.00716 
L 501.188967 264.106066 
" clip-path="url(#pc3923dcbc2)" style="fill: none; stroke: #1767b3; stroke-width: 2; stroke-linecap: square"/>
    <defs>
     <path id="mbeae1ead2c" d="M 0 3 
C 0.795609 3 1.55874 2.683901 2.12132 2.12132 
C 2.683901 1.55874 3 0.795609 3 0 
C 3 -0.795609 2.683901 -1.55874 2.12132 -2.12132 
C 1.55874 -2.683901 0.795609 -3 0 -3 
C -0.795609 -3 -1.55874 -2.683901 -2.12132 -2.12132 
C -2.683901 -1.55874 -3 -0.795609 -3 0 
C -3 0.795609 -2.683901 1.55874 -2.12132 2.12132 
C -1.55874 2.683901 -0.795609 3 0 3 
z
" style="stroke: #1767b3"/>
    </defs>
    <g clip-path="url(#pc3923dcbc2)">
     <use xlink:href="#mbeae1ead2c" x="75.31376" y="48.828923" style="fill: #1767b3; stroke: #1767b3"/>
     <use xlink:href="#mbeae1ead2c" x="288.251364" y="137.00716" style="fill: #1767b3; stroke: #1767b3"/>
     <use xlink:href="#mbeae1ead2c" x="501.188967" y="264.106066" style="fill: #1767b3; stroke: #1767b3"/>
    </g>
   </g>
   <g id="patch_3">
    <path d="M 54.02 292.232 
L 54.02 26.88 
" style="fill: none; stroke: #000000; stroke-width: 0.8; stroke-linejoin: miter; stroke-linecap: square"/>
   </g>
   <g id="patch_4">
    <path d="M 522.482727 292.232 
L 522.482727 26.88 
" style="fill: none; stroke: #000000; stroke-width: 0.8; stroke-linejoin: miter; stroke-linecap: square"/>
   </g>
   <g id="patch_5">
    <path d="M 54.02 292.232 
L 522.482727 292.232 
" style="fill: none; stroke: #000000; stroke-width: 0.8; stroke-linejoin: miter; stroke-linecap: square"/>
   </g>
   <g id="patch_6">
    <path d="M 54.02 26.88 
L 522.482727 26.88 
" style="fill: none; stroke: #000000; stroke-width: 0.8; stroke-linejoin: miter; stroke-linecap: square"/>
   </g>
   <g id="PathCollection_1">
    <defs>
     <path id="mc264f92f8e" d="M 0 3 
C 0.795609 3 1.55874 2.683901 2.12132 2.12132 
C 2.683901 1.55874 3 0.795609 3 0 
C 3 -0.795609 2.683901 -1.55874 2.12132 -2.12132 
C 1.55874 -2.683901 0.795609 -3 0 -3 
C -0.795609 -3 -1.55874 -2.683901 -2.12132 -2.12132 
C -2.683901 -1.55874 -3 -0.795609 -3 0 
C -3 0.795609 -2.683901 1.55874 -2.12132 2.12132 
C -1.55874 2.683901 -0.795609 3 0 3 
z
" style="stroke: #888888"/>
    </defs>
    <g clip-path="url(#pc3923dcbc2)">
     <use xlink:href="#mc264f92f8e" x="75.31376" y="55.390606" style="fill: #888888; stroke: #888888"/>
     <use xlink:href="#mc264f92f8e" x="75.31376" y="38.941455" style="fill: #888888; stroke: #888888"/>
     <use xlink:href="#mc264f92f8e" x="75.31376" y="52.154707" style="fill: #888888; stroke: #888888"/>
    </g>
   </g>
   <g id="PathCollection_2">
    <g clip-path="url(#pc3923dcbc2)">
     <use xlink:href="#mc264f92f8e" x="288.251364" y="141.681235" style="fill: #888888; stroke: #888888"/>
     <use xlink:href="#mc264f92f8e" x="288.251364" y="128.737641" style="fill: #888888; stroke: #888888"/>
     <use xlink:href="#mc264f92f8e" x="288.251364" y="140.602602" style="fill: #888888; stroke: #888888"/>
    </g>
   </g>
   <g id="PathCollection_3">
    <g clip-path="url(#pc3923dcbc2)">
     <use xlink:href="#mc264f92f8e" x="501.188967" y="276.780002" style="fill: #888888; stroke: #888888"/>
     <use xlink:href="#mc264f92f8e" x="501.188967" y="246.038965" style="fill: #888888; stroke: #888888"/>
     <use xlink:href="#mc264f92f8e" x="501.188967" y="269.49923" style="fill: #888888; stroke: #888888"/>
    </g>
   </g>
   <g id="text_13">
    <!-- Width 192 at native 32 px: patch size -->
    <g transform="translate(175.662301 20.88) scale(0.12 -0.12)">
     <defs>
      <path id="DejaVuSans-57" d="M 213 4666 
L 850 4666 
L 1831 722 
L 2809 4666 
L 3519 4666 
L 4500 722 
L 5478 4666 
L 6119 4666 
L 4947 0 
L 4153 0 
L 3169 4050 
L 2175 0 
L 1381 0 
L 213 4666 
z
" transform="scale(0.015625)"/>
      <path id="DejaVuSans-68" d="M 3513 2113 
L 3513 0 
L 2938 0 
L 2938 2094 
Q 2938 2591 2744 2837 
Q 2550 3084 2163 3084 
Q 1697 3084 1428 2787 
Q 1159 2491 1159 1978 
L 1159 0 
L 581 0 
L 581 4863 
L 1159 4863 
L 1159 2956 
Q 1366 3272 1645 3428 
Q 1925 3584 2291 3584 
Q 2894 3584 3203 3211 
Q 3513 2838 3513 2113 
z
" transform="scale(0.015625)"/>
      <path id="DejaVuSans-33" d="M 2597 2516 
Q 3050 2419 3304 2112 
Q 3559 1806 3559 1356 
Q 3559 666 3084 287 
Q 2609 -91 1734 -91 
Q 1441 -91 1130 -33 
Q 819 25 488 141 
L 488 750 
Q 750 597 1062 519 
Q 1375 441 1716 441 
Q 2309 441 2620 675 
Q 2931 909 2931 1356 
Q 2931 1769 2642 2001 
Q 2353 2234 1838 2234 
L 1294 2234 
L 1294 2753 
L 1863 2753 
Q 2328 2753 2575 2939 
Q 2822 3125 2822 3475 
Q 2822 3834 2567 4026 
Q 2313 4219 1838 4219 
Q 1578 4219 1281 4162 
Q 984 4106 628 3988 
L 628 4550 
Q 988 4650 1302 4700 
Q 1616 4750 1894 4750 
Q 2613 4750 3031 4423 
Q 3450 4097 3450 3541 
Q 3450 3153 3228 2886 
Q 3006 2619 2597 2516 
z
" transform="scale(0.015625)"/>
      <path id="DejaVuSans-78" d="M 3513 3500 
L 2247 1797 
L 3578 0 
L 2900 0 
L 1881 1375 
L 863 0 
L 184 0 
L 1544 1831 
L 300 3500 
L 978 3500 
L 1906 2253 
L 2834 3500 
L 3513 3500 
z
" transform="scale(0.015625)"/>
      <path id="DejaVuSans-3a" d="M 750 794 
L 1409 794 
L 1409 0 
L 750 0 
L 750 794 
z
M 750 3309 
L 1409 3309 
L 1409 2516 
L 750 2516 
L 750 3309 
z
" transform="scale(0.015625)"/>
      <path id="DejaVuSans-7a" d="M 353 3500 
L 3084 3500 
L 3084 2975 
L 922 459 
L 3084 459 
L 3084 0 
L 275 0 
L 275 525 
L 2438 3041 
L 353 3041 
L 353 3500 
z
" transform="scale(0.015625)"/>
     </defs>
     <use xlink:href="#DejaVuSans-57"/>
     <use xlink:href="#DejaVuSans-69" transform="translate(96.626953 0)"/>
     <use xlink:href="#DejaVuSans-64" transform="translate(124.410156 0)"/>
     <use xlink:href="#DejaVuSans-74" transform="translate(187.886719 0)"/>
     <use xlink:href="#DejaVuSans-68" transform="translate(227.095703 0)"/>
     <use xlink:href="#DejaVuSans-20" transform="translate(290.474609 0)"/>
     <use xlink:href="#DejaVuSans-31" transform="translate(322.261719 0)"/>
     <use xlink:href="#DejaVuSans-39" transform="translate(385.884766 0)"/>
     <use xlink:href="#DejaVuSans-32" transform="translate(449.507812 0)"/>
     <use xlink:href="#DejaVuSans-20" transform="translate(513.130859 0)"/>
     <use xlink:href="#DejaVuSans-61" transform="translate(544.917969 0)"/>
     <use xlink:href="#DejaVuSans-74" transform="translate(606.197266 0)"/>
     <use xlink:href="#DejaVuSans-20" transform="translate(645.40625 0)"/>
     <use xlink:href="#DejaVuSans-6e" transform="translate(677.193359 0)"/>
     <use xlink:href="#DejaVuSans-61" transform="translate(740.572266 0)"/>
     <use xlink:href="#DejaVuSans-74" transform="translate(801.851562 0)"/>
     <use xlink:href="#DejaVuSans-69" transform="translate(841.060547 0)"/>
     <use xlink:href="#DejaVuSans-76" transform="translate(868.84375 0)"/>
     <use xlink:href="#DejaVuSans-65" transform="translate(928.023438 0)"/>
     <use xlink:href="#DejaVuSans-20" transform="translate(989.546875 0)"/>
     <use xlink:href="#DejaVuSans-33" transform="translate(1021.333984 0)"/>
     <use xlink:href="#DejaVuSans-32" transform="translate(1084.957031 0)"/>
     <use xlink:href="#DejaVuSans-20" transform="translate(1148.580078 0)"/>
     <use xlink:href="#DejaVuSans-70" transform="translate(1180.367188 0)"/>
     <use xlink:href="#DejaVuSans-78" transform="translate(1243.84375 0)"/>
     <use xlink:href="#DejaVuSans-3a" transform="translate(1303.023438 0)"/>
     <use xlink:href="#DejaVuSans-20" transform="translate(1336.714844 0)"/>
     <use xlink:href="#DejaVuSans-70" transform="translate(1368.501953 0)"/>
     <use xlink:href="#DejaVuSans-61" transform="translate(1431.978516 0)"/>
     <use xlink:href="#DejaVuSans-74" transform="translate(1493.257812 0)"/>
     <use xlink:href="#DejaVuSans-63" transform="translate(1532.466797 0)"/>
     <use xlink:href="#DejaVuSans-68" transform="translate(1587.447266 0)"/>
     <use xlink:href="#DejaVuSans-20" transform="translate(1650.826172 0)"/>
     <use xlink:href="#DejaVuSans-73" transform="translate(1682.613281 0)"/>
     <use xlink:href="#DejaVuSans-69" transform="translate(1734.712891 0)"/>
     <use xlink:href="#DejaVuSans-7a" transform="translate(1762.496094 0)"/>
     <use xlink:href="#DejaVuSans-65" transform="translate(1814.986328 0)"/>
    </g>
   </g>
   <g id="legend_1">
    <g id="patch_7">
     <path d="M 413.938977 56.765 
L 516.882727 56.765 
Q 518.482727 56.765 518.482727 55.165 
L 518.482727 32.48 
Q 518.482727 30.88 516.882727 30.88 
L 413.938977 30.88 
Q 412.338977 30.88 412.338977 32.48 
L 412.338977 55.165 
Q 412.338977 56.765 413.938977 56.765 
z
" style="fill: #ffffff; opacity: 0.8; stroke: #cccccc; stroke-linejoin: miter"/>
    </g>
    <g id="PathCollection_4">
     <g>
      <use xlink:href="#mc264f92f8e" x="423.538977" y="38.05875" style="fill: #888888; stroke: #888888"/>
     </g>
    </g>
    <g id="text_14">
     <!-- seed -->
     <g transform="translate(437.938977 40.15875) scale(0.08 -0.08)">
      <use xlink:href="#DejaVuSans-73"/>
      <use xlink:href="#DejaVuSans-65" transform="translate(52.099609 0)"/>
      <use xlink:href="#DejaVuSans-65" transform="translate(113.623047 0)"/>
      <use xlink:href="#DejaVuSans-64" transform="translate(175.146484 0)"/>
     </g>
    </g>
    <g id="LineCollection_2">
     <path d="M 423.538977 53.10125 
L 423.538977 45.10125 
" style="fill: none; stroke: #dd6b20; stroke-width: 2"/>
    </g>
    <g id="line2d_23">
     <g>
      <use xlink:href="#m65b7946848" x="423.538977" y="53.10125" style="fill: #dd6b20; stroke: #dd6b20"/>
     </g>
    </g>
    <g id="line2d_24">
     <g>
      <use xlink:href="#m65b7946848" x="423.538977" y="45.10125" style="fill: #dd6b20; stroke: #dd6b20"/>
     </g>
    </g>
    <g id="line2d_25">
     <path d="M 415.538977 49.10125 
L 431.538977 49.10125 
" style="fill: none; stroke: #1767b3; stroke-width: 2; stroke-linecap: square"/>
    </g>
    <g id="line2d_26">
     <g>
      <use xlink:href="#mbeae1ead2c" x="423.538977" y="49.10125" style="fill: #1767b3; stroke: #1767b3"/>
     </g>
    </g>
    <g id="text_15">
     <!-- mean ± sample SD -->
     <g transform="translate(437.938977 51.90125) scale(0.08 -0.08)">
      <defs>
       <path id="DejaVuSans-6d" d="M 3328 2828 
Q 3544 3216 3844 3400 
Q 4144 3584 4550 3584 
Q 5097 3584 5394 3201 
Q 5691 2819 5691 2113 
L 5691 0 
L 5113 0 
L 5113 2094 
Q 5113 2597 4934 2840 
Q 4756 3084 4391 3084 
Q 3944 3084 3684 2787 
Q 3425 2491 3425 1978 
L 3425 0 
L 2847 0 
L 2847 2094 
Q 2847 2600 2669 2842 
Q 2491 3084 2119 3084 
Q 1678 3084 1418 2786 
Q 1159 2488 1159 1978 
L 1159 0 
L 581 0 
L 581 3500 
L 1159 3500 
L 1159 2956 
Q 1356 3278 1631 3431 
Q 1906 3584 2284 3584 
Q 2666 3584 2933 3390 
Q 3200 3197 3328 2828 
z
" transform="scale(0.015625)"/>
       <path id="DejaVuSans-b1" d="M 2944 4013 
L 2944 2803 
L 4684 2803 
L 4684 2272 
L 2944 2272 
L 2944 1063 
L 2419 1063 
L 2419 2272 
L 678 2272 
L 678 2803 
L 2419 2803 
L 2419 4013 
L 2944 4013 
z
M 678 531 
L 4684 531 
L 4684 0 
L 678 0 
L 678 531 
z
" transform="scale(0.015625)"/>
       <path id="DejaVuSans-53" d="M 3425 4513 
L 3425 3897 
Q 3066 4069 2747 4153 
Q 2428 4238 2131 4238 
Q 1616 4238 1336 4038 
Q 1056 3838 1056 3469 
Q 1056 3159 1242 3001 
Q 1428 2844 1947 2747 
L 2328 2669 
Q 3034 2534 3370 2195 
Q 3706 1856 3706 1288 
Q 3706 609 3251 259 
Q 2797 -91 1919 -91 
Q 1588 -91 1214 -16 
Q 841 59 441 206 
L 441 856 
Q 825 641 1194 531 
Q 1563 422 1919 422 
Q 2459 422 2753 634 
Q 3047 847 3047 1241 
Q 3047 1584 2836 1778 
Q 2625 1972 2144 2069 
L 1759 2144 
Q 1053 2284 737 2584 
Q 422 2884 422 3419 
Q 422 4038 858 4394 
Q 1294 4750 2059 4750 
Q 2388 4750 2728 4690 
Q 3069 4631 3425 4513 
z
" transform="scale(0.015625)"/>
       <path id="DejaVuSans-44" d="M 1259 4147 
L 1259 519 
L 2022 519 
Q 2988 519 3436 956 
Q 3884 1394 3884 2338 
Q 3884 3275 3436 3711 
Q 2988 4147 2022 4147 
L 1259 4147 
z
M 628 4666 
L 1925 4666 
Q 3281 4666 3915 4102 
Q 4550 3538 4550 2338 
Q 4550 1131 3912 565 
Q 3275 0 1925 0 
L 628 0 
L 628 4666 
z
" transform="scale(0.015625)"/>
      </defs>
      <use xlink:href="#DejaVuSans-6d"/>
      <use xlink:href="#DejaVuSans-65" transform="translate(97.412109 0)"/>
      <use xlink:href="#DejaVuSans-61" transform="translate(158.935547 0)"/>
      <use xlink:href="#DejaVuSans-6e" transform="translate(220.214844 0)"/>
      <use xlink:href="#DejaVuSans-20" transform="translate(283.59375 0)"/>
      <use xlink:href="#DejaVuSans-b1" transform="translate(315.380859 0)"/>
      <use xlink:href="#DejaVuSans-20" transform="translate(399.169922 0)"/>
      <use xlink:href="#DejaVuSans-73" transform="translate(430.957031 0)"/>
      <use xlink:href="#DejaVuSans-61" transform="translate(483.056641 0)"/>
      <use xlink:href="#DejaVuSans-6d" transform="translate(544.335938 0)"/>
      <use xlink:href="#DejaVuSans-70" transform="translate(641.748047 0)"/>
      <use xlink:href="#DejaVuSans-6c" transform="translate(705.224609 0)"/>
      <use xlink:href="#DejaVuSans-65" transform="translate(733.007812 0)"/>
      <use xlink:href="#DejaVuSans-20" transform="translate(794.53125 0)"/>
      <use xlink:href="#DejaVuSans-53" transform="translate(826.318359 0)"/>
      <use xlink:href="#DejaVuSans-44" transform="translate(889.794922 0)"/>
     </g>
    </g>
   </g>
  </g>
  <g id="text_16">
   <!-- 20 epochs · depth 4 · 8 heads · validation only -->
   <g transform="translate(177.15875 342.144) scale(0.08 -0.08)">
    <defs>
     <path id="DejaVuSans-b7" d="M 684 2619 
L 1344 2619 
L 1344 1825 
L 684 1825 
L 684 2619 
z
" transform="scale(0.015625)"/>
    </defs>
    <use xlink:href="#DejaVuSans-32"/>
    <use xlink:href="#DejaVuSans-30" transform="translate(63.623047 0)"/>
    <use xlink:href="#DejaVuSans-20" transform="translate(127.246094 0)"/>
    <use xlink:href="#DejaVuSans-65" transform="translate(159.033203 0)"/>
    <use xlink:href="#DejaVuSans-70" transform="translate(220.556641 0)"/>
    <use xlink:href="#DejaVuSans-6f" transform="translate(284.033203 0)"/>
    <use xlink:href="#DejaVuSans-63" transform="translate(345.214844 0)"/>
    <use xlink:href="#DejaVuSans-68" transform="translate(400.195312 0)"/>
    <use xlink:href="#DejaVuSans-73" transform="translate(463.574219 0)"/>
    <use xlink:href="#DejaVuSans-20" transform="translate(515.673828 0)"/>
    <use xlink:href="#DejaVuSans-b7" transform="translate(547.460938 0)"/>
    <use xlink:href="#DejaVuSans-20" transform="translate(579.248047 0)"/>
    <use xlink:href="#DejaVuSans-64" transform="translate(611.035156 0)"/>
    <use xlink:href="#DejaVuSans-65" transform="translate(674.511719 0)"/>
    <use xlink:href="#DejaVuSans-70" transform="translate(736.035156 0)"/>
    <use xlink:href="#DejaVuSans-74" transform="translate(799.511719 0)"/>
    <use xlink:href="#DejaVuSans-68" transform="translate(838.720703 0)"/>
    <use xlink:href="#DejaVuSans-20" transform="translate(902.099609 0)"/>
    <use xlink:href="#DejaVuSans-34" transform="translate(933.886719 0)"/>
    <use xlink:href="#DejaVuSans-20" transform="translate(997.509766 0)"/>
    <use xlink:href="#DejaVuSans-b7" transform="translate(1029.296875 0)"/>
    <use xlink:href="#DejaVuSans-20" transform="translate(1061.083984 0)"/>
    <use xlink:href="#DejaVuSans-38" transform="translate(1092.871094 0)"/>
    <use xlink:href="#DejaVuSans-20" transform="translate(1156.494141 0)"/>
    <use xlink:href="#DejaVuSans-68" transform="translate(1188.28125 0)"/>
    <use xlink:href="#DejaVuSans-65" transform="translate(1251.660156 0)"/>
    <use xlink:href="#DejaVuSans-61" transform="translate(1313.183594 0)"/>
    <use xlink:href="#DejaVuSans-64" transform="translate(1374.462891 0)"/>
    <use xlink:href="#DejaVuSans-73" transform="translate(1437.939453 0)"/>
    <use xlink:href="#DejaVuSans-20" transform="translate(1490.039062 0)"/>
    <use xlink:href="#DejaVuSans-b7" transform="translate(1521.826172 0)"/>
    <use xlink:href="#DejaVuSans-20" transform="translate(1553.613281 0)"/>
    <use xlink:href="#DejaVuSans-76" transform="translate(1585.400391 0)"/>
    <use xlink:href="#DejaVuSans-61" transform="translate(1644.580078 0)"/>
    <use xlink:href="#DejaVuSans-6c" transform="translate(1705.859375 0)"/>
    <use xlink:href="#DejaVuSans-69" transform="translate(1733.642578 0)"/>
    <use xlink:href="#DejaVuSans-64" transform="translate(1761.425781 0)"/>
    <use xlink:href="#DejaVuSans-61" transform="translate(1824.902344 0)"/>
    <use xlink:href="#DejaVuSans-74" transform="translate(1886.181641 0)"/>
    <use xlink:href="#DejaVuSans-69" transform="translate(1925.390625 0)"/>
    <use xlink:href="#DejaVuSans-6f" transform="translate(1953.173828 0)"/>
    <use xlink:href="#DejaVuSans-6e" transform="translate(2014.355469 0)"/>
    <use xlink:href="#DejaVuSans-20" transform="translate(2077.734375 0)"/>
    <use xlink:href="#DejaVuSans-6f" transform="translate(2109.521484 0)"/>
    <use xlink:href="#DejaVuSans-6e" transform="translate(2170.703125 0)"/>
    <use xlink:href="#DejaVuSans-6c" transform="translate(2234.082031 0)"/>
    <use xlink:href="#DejaVuSans-79" transform="translate(2261.865234 0)"/>
   </g>
  </g>
 </g>
 <defs>
  <clipPath id="pc3923dcbc2">
   <rect x="54.02" y="26.88" width="468.462727" height="265.352"/>
  </clipPath>
 </defs>
</svg>
